<svg width="220" height="208" viewBox="0 0 220 208" fill="none" xmlns="http://www.w3.org/2000/svg">
<path d="M95.2662 11C70.8659 16.3562 63.8308 34.7878 51.3974 54.6813C43.2637 67.6952 32.2364 77.6856 27.0258 92.7385C22.9752 104.44 2.70146 134.244 12.7778 127.046C30.2775 114.546 57.4281 100.78 78.3936 94.6132C92.8325 90.3665 115.894 75.4836 125.637 63.3051C126.621 62.0755 138.007 51.2041 138.948 53.5565C142.877 63.3811 127.176 75.4519 121.512 81.1151C95.4404 107.187 61.5115 121.527 38.6492 150.105C36.4364 152.871 37.0398 166.165 37.8993 169.603C39.7861 177.15 90.9944 148.117 98.6407 144.294C117.088 135.07 132.063 119.847 151.883 112.986C162.709 109.238 169.881 99.1897 181.504 96.113C190.051 93.8506 200.995 95.9473 187.878 105.487C166.3 121.18 148.358 141.207 129.011 159.479C119.265 168.684 108.6 183.087 96.766 189.85C81.7347 198.439 100.231 198.375 108.577 194.724C119.224 190.066 128.937 183.355 139.885 178.976C149.62 175.082 210 138.811 210 169.603" stroke="#9F9595" stroke-width="20" stroke-linecap="round" stroke-linejoin="round"/>
</svg>
