<?xml version="1.0"?>
<svg width="117" height="103" viewBox="0 0 117 103" fill="none" xmlns="http://www.w3.org/2000/svg">
    <path d="M9 82.5C9 84.9853 6.98528 87 4.5 87C2.01472 87 0 84.9853 0 82.5C0 80.0147 2.01472 78 4.5 78C6.98528 78 9 80.0147 9 82.5Z" fill="#595959"/>
    <path d="M21 82.5C21 84.9853 18.9853 87 16.5 87C14.0147 87 12 84.9853 12 82.5C12 80.0147 14.0147 78 16.5 78C18.9853 78 21 80.0147 21 82.5Z" fill="#595959"/>
    <path d="M33 82.5C33 84.9853 30.9853 87 28.5 87C26.0147 87 24 84.9853 24 82.5C24 80.0147 26.0147 78 28.5 78C30.9853 78 33 80.0147 33 82.5Z" fill="#595959"/>
    <path d="M45 82.5C45 84.9853 42.9853 87 40.5 87C38.0147 87 36 84.9853 36 82.5C36 80.0147 38.0147 78 40.5 78C42.9853 78 45 80.0147 45 82.5Z" fill="#595959"/>
    <path d="M57 82.5C57 84.9853 54.9853 87 52.5 87C50.0147 87 48 84.9853 48 82.5C48 80.0147 50.0147 78 52.5 78C54.9853 78 57 80.0147 57 82.5Z" fill="#595959"/>
    <path d="M69 82.5C69 84.9853 66.9853 87 64.5 87C62.0147 87 60 84.9853 60 82.5C60 80.0147 62.0147 78 64.5 78C66.9853 78 69 80.0147 69 82.5Z" fill="#595959"/>
    <path d="M81 82.5C81 84.9853 78.9853 87 76.5 87C74.0147 87 72 84.9853 72 82.5C72 80.0147 74.0147 78 76.5 78C78.9853 78 81 80.0147 81 82.5Z" fill="#595959"/>
    <path d="M93 82.5C93 84.9853 90.9853 87 88.5 87C86.0147 87 84 84.9853 84 82.5C84 80.0147 86.0147 78 88.5 78C90.9853 78 93 80.0147 93 82.5Z" fill="#595959"/>
    <path d="M105 82.5C105 84.9853 102.985 87 100.5 87C98.0147 87 96 84.9853 96 82.5C96 80.0147 98.0147 78 100.5 78C102.985 78 105 80.0147 105 82.5Z" fill="#595959"/>
    <path d="M117 82.5C117 84.9853 114.985 87 112.5 87C110.015 87 108 84.9853 108 82.5C108 80.0147 110.015 78 112.5 78C114.985 78 117 80.0147 117 82.5Z" fill="#595959"/>
    <path d="M9 98.5C9 100.985 6.98528 103 4.5 103C2.01472 103 0 100.985 0 98.5C0 96.0147 2.01472 94 4.5 94C6.98528 94 9 96.0147 9 98.5Z" fill="#595959"/>
    <path d="M21 98.5C21 100.985 18.9853 103 16.5 103C14.0147 103 12 100.985 12 98.5C12 96.0147 14.0147 94 16.5 94C18.9853 94 21 96.0147 21 98.5Z" fill="#595959"/>
    <path d="M33 98.5C33 100.985 30.9853 103 28.5 103C26.0147 103 24 100.985 24 98.5C24 96.0147 26.0147 94 28.5 94C30.9853 94 33 96.0147 33 98.5Z" fill="#595959"/>
    <path d="M45 98.5C45 100.985 42.9853 103 40.5 103C38.0147 103 36 100.985 36 98.5C36 96.0147 38.0147 94 40.5 94C42.9853 94 45 96.0147 45 98.5Z" fill="#595959"/>
    <path d="M57 98.5C57 100.985 54.9853 103 52.5 103C50.0147 103 48 100.985 48 98.5C48 96.0147 50.0147 94 52.5 94C54.9853 94 57 96.0147 57 98.5Z" fill="#595959"/>
    <path d="M69 98.5C69 100.985 66.9853 103 64.5 103C62.0147 103 60 100.985 60 98.5C60 96.0147 62.0147 94 64.5 94C66.9853 94 69 96.0147 69 98.5Z" fill="#595959"/>
    <path d="M81 98.5C81 100.985 78.9853 103 76.5 103C74.0147 103 72 100.985 72 98.5C72 96.0147 74.0147 94 76.5 94C78.9853 94 81 96.0147 81 98.5Z" fill="#595959"/>
    <path d="M93 98.5C93 100.985 90.9853 103 88.5 103C86.0147 103 84 100.985 84 98.5C84 96.0147 86.0147 94 88.5 94C90.9853 94 93 96.0147 93 98.5Z" fill="#595959"/>
    <path d="M105 98.5C105 100.985 102.985 103 100.5 103C98.0147 103 96 100.985 96 98.5C96 96.0147 98.0147 94 100.5 94C102.985 94 105 96.0147 105 98.5Z" fill="#595959"/>
    <path d="M117 98.5C117 100.985 114.985 103 112.5 103C110.015 103 108 100.985 108 98.5C108 96.0147 110.015 94 112.5 94C114.985 94 117 96.0147 117 98.5Z" fill="#595959"/>
    <path d="M9 50.5C9 52.9853 6.98528 55 4.5 55C2.01472 55 0 52.9853 0 50.5C0 48.0147 2.01472 46 4.5 46C6.98528 46 9 48.0147 9 50.5Z" fill="#595959"/>
    <path d="M21 50.5C21 52.9853 18.9853 55 16.5 55C14.0147 55 12 52.9853 12 50.5C12 48.0147 14.0147 46 16.5 46C18.9853 46 21 48.0147 21 50.5Z" fill="#595959"/>
    <path d="M33 50.5C33 52.9853 30.9853 55 28.5 55C26.0147 55 24 52.9853 24 50.5C24 48.0147 26.0147 46 28.5 46C30.9853 46 33 48.0147 33 50.5Z" fill="#595959"/>
    <path d="M45 50.5C45 52.9853 42.9853 55 40.5 55C38.0147 55 36 52.9853 36 50.5C36 48.0147 38.0147 46 40.5 46C42.9853 46 45 48.0147 45 50.5Z" fill="#595959"/>
    <path d="M57 50.5C57 52.9853 54.9853 55 52.5 55C50.0147 55 48 52.9853 48 50.5C48 48.0147 50.0147 46 52.5 46C54.9853 46 57 48.0147 57 50.5Z" fill="#595959"/>
    <path d="M69 50.5C69 52.9853 66.9853 55 64.5 55C62.0147 55 60 52.9853 60 50.5C60 48.0147 62.0147 46 64.5 46C66.9853 46 69 48.0147 69 50.5Z" fill="#595959"/>
    <path d="M81 50.5C81 52.9853 78.9853 55 76.5 55C74.0147 55 72 52.9853 72 50.5C72 48.0147 74.0147 46 76.5 46C78.9853 46 81 48.0147 81 50.5Z" fill="#595959"/>
    <path d="M93 50.5C93 52.9853 90.9853 55 88.5 55C86.0147 55 84 52.9853 84 50.5C84 48.0147 86.0147 46 88.5 46C90.9853 46 93 48.0147 93 50.5Z" fill="#595959"/>
    <path d="M105 50.5C105 52.9853 102.985 55 100.5 55C98.0147 55 96 52.9853 96 50.5C96 48.0147 98.0147 46 100.5 46C102.985 46 105 48.0147 105 50.5Z" fill="#595959"/>
    <path d="M117 50.5C117 52.9853 114.985 55 112.5 55C110.015 55 108 52.9853 108 50.5C108 48.0147 110.015 46 112.5 46C114.985 46 117 48.0147 117 50.5Z" fill="#595959"/>
    <path d="M9 66.5C9 68.9853 6.98528 71 4.5 71C2.01472 71 0 68.9853 0 66.5C0 64.0147 2.01472 62 4.5 62C6.98528 62 9 64.0147 9 66.5Z" fill="#595959"/>
    <path d="M21 66.5C21 68.9853 18.9853 71 16.5 71C14.0147 71 12 68.9853 12 66.5C12 64.0147 14.0147 62 16.5 62C18.9853 62 21 64.0147 21 66.5Z" fill="#595959"/>
    <path d="M33 66.5C33 68.9853 30.9853 71 28.5 71C26.0147 71 24 68.9853 24 66.5C24 64.0147 26.0147 62 28.5 62C30.9853 62 33 64.0147 33 66.5Z" fill="#595959"/>
    <path d="M45 66.5C45 68.9853 42.9853 71 40.5 71C38.0147 71 36 68.9853 36 66.5C36 64.0147 38.0147 62 40.5 62C42.9853 62 45 64.0147 45 66.5Z" fill="#595959"/>
    <path d="M57 66.5C57 68.9853 54.9853 71 52.5 71C50.0147 71 48 68.9853 48 66.5C48 64.0147 50.0147 62 52.5 62C54.9853 62 57 64.0147 57 66.5Z" fill="#595959"/>
    <path d="M69 66.5C69 68.9853 66.9853 71 64.5 71C62.0147 71 60 68.9853 60 66.5C60 64.0147 62.0147 62 64.5 62C66.9853 62 69 64.0147 69 66.5Z" fill="#595959"/>
    <path d="M81 66.5C81 68.9853 78.9853 71 76.5 71C74.0147 71 72 68.9853 72 66.5C72 64.0147 74.0147 62 76.5 62C78.9853 62 81 64.0147 81 66.5Z" fill="#595959"/>
    <path d="M93 66.5C93 68.9853 90.9853 71 88.5 71C86.0147 71 84 68.9853 84 66.5C84 64.0147 86.0147 62 88.5 62C90.9853 62 93 64.0147 93 66.5Z" fill="#595959"/>
    <path d="M105 66.5C105 68.9853 102.985 71 100.5 71C98.0147 71 96 68.9853 96 66.5C96 64.0147 98.0147 62 100.5 62C102.985 62 105 64.0147 105 66.5Z" fill="#595959"/>
    <path d="M117 66.5C117 68.9853 114.985 71 112.5 71C110.015 71 108 68.9853 108 66.5C108 64.0147 110.015 62 112.5 62C114.985 62 117 64.0147 117 66.5Z" fill="#595959"/>
    <path d="M9 18.5C9 20.9853 6.98528 23 4.5 23C2.01472 23 0 20.9853 0 18.5C0 16.0147 2.01472 14 4.5 14C6.98528 14 9 16.0147 9 18.5Z" fill="#595959"/>
    <path d="M21 18.5C21 20.9853 18.9853 23 16.5 23C14.0147 23 12 20.9853 12 18.5C12 16.0147 14.0147 14 16.5 14C18.9853 14 21 16.0147 21 18.5Z" fill="#595959"/>
    <path d="M33 18.5C33 20.9853 30.9853 23 28.5 23C26.0147 23 24 20.9853 24 18.5C24 16.0147 26.0147 14 28.5 14C30.9853 14 33 16.0147 33 18.5Z" fill="#595959"/>
    <path d="M45 18.5C45 20.9853 42.9853 23 40.5 23C38.0147 23 36 20.9853 36 18.5C36 16.0147 38.0147 14 40.5 14C42.9853 14 45 16.0147 45 18.5Z" fill="#595959"/>
    <path d="M57 18.5C57 20.9853 54.9853 23 52.5 23C50.0147 23 48 20.9853 48 18.5C48 16.0147 50.0147 14 52.5 14C54.9853 14 57 16.0147 57 18.5Z" fill="#595959"/>
    <path d="M69 18.5C69 20.9853 66.9853 23 64.5 23C62.0147 23 60 20.9853 60 18.5C60 16.0147 62.0147 14 64.5 14C66.9853 14 69 16.0147 69 18.5Z" fill="#595959"/>
    <path d="M81 18.5C81 20.9853 78.9853 23 76.5 23C74.0147 23 72 20.9853 72 18.5C72 16.0147 74.0147 14 76.5 14C78.9853 14 81 16.0147 81 18.5Z" fill="#595959"/>
    <path d="M93 18.5C93 20.9853 90.9853 23 88.5 23C86.0147 23 84 20.9853 84 18.5C84 16.0147 86.0147 14 88.5 14C90.9853 14 93 16.0147 93 18.5Z" fill="#595959"/>
    <path d="M105 18.5C105 20.9853 102.985 23 100.5 23C98.0147 23 96 20.9853 96 18.5C96 16.0147 98.0147 14 100.5 14C102.985 14 105 16.0147 105 18.5Z" fill="#595959"/>
    <path d="M117 18.5C117 20.9853 114.985 23 112.5 23C110.015 23 108 20.9853 108 18.5C108 16.0147 110.015 14 112.5 14C114.985 14 117 16.0147 117 18.5Z" fill="#595959"/>
    <path d="M9 34.5C9 36.9853 6.98528 39 4.5 39C2.01472 39 0 36.9853 0 34.5C0 32.0147 2.01472 30 4.5 30C6.98528 30 9 32.0147 9 34.5Z" fill="#595959"/>
    <path d="M21 34.5C21 36.9853 18.9853 39 16.5 39C14.0147 39 12 36.9853 12 34.5C12 32.0147 14.0147 30 16.5 30C18.9853 30 21 32.0147 21 34.5Z" fill="#595959"/>
    <path d="M33 34.5C33 36.9853 30.9853 39 28.5 39C26.0147 39 24 36.9853 24 34.5C24 32.0147 26.0147 30 28.5 30C30.9853 30 33 32.0147 33 34.5Z" fill="#595959"/>
    <path d="M45 34.5C45 36.9853 42.9853 39 40.5 39C38.0147 39 36 36.9853 36 34.5C36 32.0147 38.0147 30 40.5 30C42.9853 30 45 32.0147 45 34.5Z" fill="#595959"/>
    <path d="M57 34.5C57 36.9853 54.9853 39 52.5 39C50.0147 39 48 36.9853 48 34.5C48 32.0147 50.0147 30 52.5 30C54.9853 30 57 32.0147 57 34.5Z" fill="#595959"/>
    <path d="M69 34.5C69 36.9853 66.9853 39 64.5 39C62.0147 39 60 36.9853 60 34.5C60 32.0147 62.0147 30 64.5 30C66.9853 30 69 32.0147 69 34.5Z" fill="#595959"/>
    <path d="M81 34.5C81 36.9853 78.9853 39 76.5 39C74.0147 39 72 36.9853 72 34.5C72 32.0147 74.0147 30 76.5 30C78.9853 30 81 32.0147 81 34.5Z" fill="#595959"/>
    <path d="M93 34.5C93 36.9853 90.9853 39 88.5 39C86.0147 39 84 36.9853 84 34.5C84 32.0147 86.0147 30 88.5 30C90.9853 30 93 32.0147 93 34.5Z" fill="#595959"/>
    <path d="M105 34.5C105 36.9853 102.985 39 100.5 39C98.0147 39 96 36.9853 96 34.5C96 32.0147 98.0147 30 100.5 30C102.985 30 105 32.0147 105 34.5Z" fill="#595959"/>
    <path d="M117 34.5C117 36.9853 114.985 39 112.5 39C110.015 39 108 36.9853 108 34.5C108 32.0147 110.015 30 112.5 30C114.985 30 117 32.0147 117 34.5Z" fill="#595959"/>
    <path d="M9 4.5C9 6.98528 6.98528 9 4.5 9C2.01472 9 0 6.98528 0 4.5C0 2.01472 2.01472 0 4.5 0C6.98528 0 9 2.01472 9 4.5Z" fill="#595959"/>
    <path d="M21 4.5C21 6.98528 18.9853 9 16.5 9C14.0147 9 12 6.98528 12 4.5C12 2.01472 14.0147 0 16.5 0C18.9853 0 21 2.01472 21 4.5Z" fill="#595959"/>
    <path d="M33 4.5C33 6.98528 30.9853 9 28.5 9C26.0147 9 24 6.98528 24 4.5C24 2.01472 26.0147 0 28.5 0C30.9853 0 33 2.01472 33 4.5Z" fill="#595959"/>
    <path d="M45 4.5C45 6.98528 42.9853 9 40.5 9C38.0147 9 36 6.98528 36 4.5C36 2.01472 38.0147 0 40.5 0C42.9853 0 45 2.01472 45 4.5Z" fill="#595959"/>
    <path d="M57 4.5C57 6.98528 54.9853 9 52.5 9C50.0147 9 48 6.98528 48 4.5C48 2.01472 50.0147 0 52.5 0C54.9853 0 57 2.01472 57 4.5Z" fill="#595959"/>
    <path d="M69 4.5C69 6.98528 66.9853 9 64.5 9C62.0147 9 60 6.98528 60 4.5C60 2.01472 62.0147 0 64.5 0C66.9853 0 69 2.01472 69 4.5Z" fill="#595959"/>
    <path d="M81 4.5C81 6.98528 78.9853 9 76.5 9C74.0147 9 72 6.98528 72 4.5C72 2.01472 74.0147 0 76.5 0C78.9853 0 81 2.01472 81 4.5Z" fill="#595959"/>
    <path d="M93 4.5C93 6.98528 90.9853 9 88.5 9C86.0147 9 84 6.98528 84 4.5C84 2.01472 86.0147 0 88.5 0C90.9853 0 93 2.01472 93 4.5Z" fill="#595959"/>
    <path d="M105 4.5C105 6.98528 102.985 9 100.5 9C98.0147 9 96 6.98528 96 4.5C96 2.01472 98.0147 0 100.5 0C102.985 0 105 2.01472 105 4.5Z" fill="#595959"/>
    <path d="M117 4.5C117 6.98528 114.985 9 112.5 9C110.015 9 108 6.98528 108 4.5C108 2.01472 110.015 0 112.5 0C114.985 0 117 2.01472 117 4.5Z" fill="#595959"/>
</svg>
