<svg id="Capa_1" enable-background="new 0 0 512 512" height="512" viewBox="0 0 512 512" width="512" xmlns="http://www.w3.org/2000/svg"><path d="m286 206c5.522 0 10-4.477 10-10v-90c0-5.523-4.478-10-10-10s-10 4.477-10 10v90c0 5.523 4.478 10 10 10z"/><path d="m206 382c0-5.523-4.477-10-10-10h-96c-5.523 0-10 4.477-10 10s4.477 10 10 10h96c5.523 0 10-4.477 10-10z"/><path d="m376 392c5.522 0 10-4.477 10-10s-4.478-10-10-10h-90c-5.522 0-10 4.477-10 10s4.478 10 10 10z"/><path d="m196 452h90c5.522 0 10-4.477 10-10s-4.478-10-10-10h-90c-5.523 0-10 4.477-10 10s4.477 10 10 10z"/><circle cx="256" cy="501.999" r="10"/><path d="m10 512h201c5.523 0 10-4.477 10-10s-4.477-10-10-10h-191v-40h50c4.044 0 7.691-2.437 9.239-6.173s.692-8.038-2.167-10.898l-57.072-57.071v-45.858h472v100h-86c-5.522 0-10 4.477-10 10s4.478 10 10 10h86v40h-191c-5.522 0-10 4.477-10 10s4.478 10 10 10h201c5.522 0 10-4.477 10-10v-180c0-5.523-4.478-10-10-10h-146v-302c0-5.523-4.478-10-10-10h-180c-5.523 0-10 4.477-10 10v116h-51.857l-18.523-18.523c1.377-11.807 2.551-39.878-14.15-56.58-21.107-21.093-60.375-13.675-62.036-13.35-3.987.783-7.104 3.9-7.887 7.887-.326 1.661-7.743 40.93 13.35 62.035.001 0 .001.001.002.001 13.901 13.902 37.037 16.427 56.579 14.15l18.522 18.523v55.857c0 3.921 2.292 7.481 5.862 9.104l60.138 27.335v79.561h-146c-5.523 0-10 4.477-10 10v60c0 2.652 1.054 5.196 2.929 7.071l42.929 42.929h-35.858c-5.523 0-10 4.477-10 10v60c0 5.523 4.477 10 10 10zm19.042-418.671c-8.909-8.917-9.655-26.082-8.775-37.01 9.835-.801 27.618-.717 37.063 8.723 8.909 8.909 9.65 26.075 8.767 37.002-9.834.803-27.617.724-37.055-8.715zm141.096 123.567-60.138-27.335v-43.561h46v20c0 5.523 4.477 10 10 10s10-4.477 10-10c0-14.728 0-130.108 0-146h40v86c0 5.523 4.477 10 10 10s10-4.477 10-10v-86h100v292h-100v-86c0-5.523-4.477-10-10-10s-10 4.477-10 10v86h-40v-86c0-3.921-2.292-7.481-5.862-9.104z"/></svg>