<?xml version="1.0" encoding="iso-8859-1"?>
<!-- Generator: Adobe Illustrator 19.0.0, SVG Export Plug-In . SVG Version: 6.00 Build 0)  -->
<svg version="1.1" id="Capa_1" xmlns="http://www.w3.org/2000/svg" xmlns:xlink="http://www.w3.org/1999/xlink" x="0px" y="0px"
	 viewBox="0 0 512 512" style="enable-background:new 0 0 512 512;" xml:space="preserve">
<g>
	<g>
		<g>
			<path d="M256.75,68.048c-7.406,0-14.793,0.225-21.957,0.668c-4.134,0.256-7.278,3.815-7.022,7.949
				c0.246,3.977,3.548,7.037,7.479,7.037c0.156,0,0.313-0.005,0.471-0.015c6.856-0.424,13.931-0.64,21.03-0.64
				c4.142,0,7.5-3.358,7.5-7.5C264.251,71.405,260.892,68.048,256.75,68.048z"/>
			<path d="M502.618,138.722c-6.06-6.06-14.118-9.397-22.688-9.397c-8.57,0-16.628,3.338-22.686,9.397l-39.341,39.341v-78.022
				c0-19.669-17.659-37.553-49.722-50.359c-29.886-11.937-69.46-18.511-111.431-18.511c-41.971,0-81.546,6.573-111.43,18.51
				c-32.064,12.806-49.722,30.691-49.722,50.359v161.465L60.43,226.338c10.202-8.982,17.159-23.834,17.159-39.915
				c0-29.959-15.749-53.28-25.137-64.515c-3.388-4.056-8.366-6.382-13.657-6.382s-10.269,2.326-13.657,6.381
				C15.748,133.143,0,156.465,0,186.424c0,13.234,4.715,25.632,12.068,34.616c-0.404,0.365-0.801,0.739-1.187,1.125
				c-6.06,6.06-9.398,14.117-9.398,22.688c0,8.569,3.337,16.627,9.398,22.688l84.715,84.714v18.318c0,4.142,3.358,7.5,7.5,7.5
				c4.142,0,7.5-3.358,7.5-7.5V129.873c8.333,7.699,20.005,14.648,34.722,20.527c29.885,11.936,69.458,18.51,111.43,18.51
				c41.972,0,81.545-6.573,111.43-18.51c14.716-5.878,26.389-12.827,34.722-20.527V411.96c0,12.925-14.683,26.204-40.285,36.429
				c-28.158,11.246-65.755,17.44-105.867,17.44c-40.112,0-77.709-6.193-105.867-17.44c-25.602-10.225-40.285-23.504-40.285-36.429
				v-3.72c0-4.142-3.358-7.5-7.5-7.5c-4.142,0-7.5,3.358-7.5,7.5v3.72c0,19.669,17.659,37.553,49.722,50.359
				c29.885,11.936,69.458,18.51,111.43,18.51c41.972,0,81.545-6.573,111.43-18.51c32.064-12.806,49.722-30.691,49.722-50.359
				V268.811l54.627-54.626c2.929-2.929,2.929-7.678,0-10.606c-2.929-2.93-7.678-2.929-10.607,0l-44.019,44.018v-48.321
				l49.948-49.947c3.226-3.227,7.516-5.003,12.079-5.003c4.564,0,8.854,1.777,12.081,5.004c3.227,3.227,5.003,7.517,5.003,12.08
				c0,4.563-1.777,8.853-5.003,12.08l-5.344,5.344c-2.929,2.929-2.929,7.678,0,10.607s7.678,2.929,10.607,0l5.344-5.344
				C515.127,171.586,515.127,151.232,502.618,138.722z M36.647,131.526c0.727-0.87,1.656-1,2.146-1c0.49,0,1.419,0.129,2.146,1
				c8.084,9.675,21.647,29.674,21.647,54.897c0,17.346-11.563,33.745-23.793,33.745S15,203.768,15,186.424
				C15,161.2,28.563,141.203,36.647,131.526z M95.597,331.04l-74.108-74.108c-3.227-3.227-5.004-7.517-5.004-12.08
				c0-4.563,1.777-8.853,5.004-12.081c0.661-0.661,1.383-1.252,2.142-1.793c4.711,2.676,9.852,4.19,15.163,4.19
				c2.75,0,5.453-0.415,8.076-1.175l48.726,48.725V331.04z M362.616,136.469c-28.157,11.246-65.755,17.44-105.867,17.44
				c-40.112,0-77.71-6.193-105.867-17.44c-25.602-10.225-40.285-23.503-40.285-36.429s14.683-26.204,40.285-36.429
				c28.158-11.246,65.755-17.44,105.867-17.44c40.112,0,77.709,6.193,105.867,17.44c25.602,10.225,40.285,23.504,40.285,36.429
				C402.901,112.966,388.218,126.244,362.616,136.469z"/>
			<path d="M38.793,208.465c4.142,0,7.5-3.358,7.5-7.5v-40.6c0-4.142-3.358-7.5-7.5-7.5c-4.142,0-7.5,3.358-7.5,7.5v40.6
				C31.293,205.107,34.651,208.465,38.793,208.465z"/>
			<path d="M256.75,117.033c-15.952,0-31.4-1.076-45.912-3.196c-13.419-1.962-25.86-4.776-36.975-8.364
				c-3.945-1.276-8.169,0.892-9.441,4.833c-1.272,3.942,0.892,8.169,4.833,9.441c11.909,3.844,25.17,6.849,39.414,8.932
				c15.229,2.226,31.406,3.354,48.082,3.354c4.142,0,7.5-3.358,7.5-7.5C264.25,120.391,260.892,117.033,256.75,117.033z"/>
			<path d="M343.033,79.947c-14.752-4.654-31.329-8.002-49.269-9.952c-4.112-0.443-7.819,2.528-8.266,6.646s2.528,7.819,6.646,8.266
				c16.961,1.843,32.564,4.987,46.376,9.344c0.751,0.237,1.511,0.35,2.259,0.35c3.186,0,6.141-2.046,7.15-5.245
				C349.175,85.406,346.983,81.193,343.033,79.947z"/>
			<path d="M332.379,268.578v-11.624c0-4.142-3.358-7.5-7.5-7.5c-4.142,0-7.5,3.358-7.5,7.5v11.624c0,4.142,3.358,7.5,7.5,7.5
				C329.021,276.079,332.379,272.72,332.379,268.578z"/>
			<path d="M291.537,392.834c-4.142,0-7.5,3.358-7.5,7.5c0,2.535-0.355,6.953-0.73,11.63c-0.746,9.28-1.591,19.799-0.691,26.321
				c0.519,3.755,3.733,6.476,7.42,6.476c0.341,0,0.687-0.023,1.035-0.071c4.103-0.566,6.971-4.352,6.404-8.455
				c-0.676-4.9,0.133-14.974,0.783-23.069c0.418-5.202,0.779-9.695,0.779-12.831C299.037,396.192,295.679,392.834,291.537,392.834z"
				/>
			<path d="M270.273,250.352h-28.53c-7.089,0-12.856,5.768-12.856,12.856v14.265c0,14.954,12.166,27.122,27.122,27.122
				c14.955,0,27.122-12.167,27.122-27.122v-14.265C283.129,256.119,277.361,250.352,270.273,250.352z M256.008,289.595
				c-6.683,0-12.121-5.438-12.121-12.121v-12.121h24.242v12.121h0.001C268.129,284.157,262.691,289.595,256.008,289.595z"/>
			<path d="M151.095,183.735c-4.092,0.647-6.884,4.487-6.238,8.578c1.577,9.984,2.28,16.63,2.28,21.547c0,4.142,3.358,7.5,7.5,7.5
				c4.142,0,7.5-3.358,7.5-7.5c0-5.731-0.76-13.098-2.464-23.887C159.028,185.882,155.185,183.093,151.095,183.735z"/>
			<path d="M351.943,419.608c0-6.873,0.725-13.633,1.492-20.791c0.938-8.743,2-18.653,2-30.876c0-4.142-3.358-7.5-7.5-7.5
				c-4.142,0-7.5,3.358-7.5,7.5c0,11.421-0.973,20.499-1.914,29.277c-0.811,7.567-1.577,14.715-1.577,22.391
				c0,4.142,3.358,7.5,7.5,7.5C348.585,427.108,351.943,423.751,351.943,419.608z"/>
			<path d="M150.291,348.857c0,6.821,1.124,14.472,2.313,22.574c1.304,8.885,2.653,18.074,2.603,26.723
				c-0.024,4.142,3.314,7.519,7.457,7.543h0.044c4.122,0,7.475-3.329,7.499-7.457c0.057-9.787-1.441-19.989-2.762-28.988
				c-1.108-7.543-2.154-14.668-2.154-20.395c0-4.142-3.358-7.5-7.5-7.5C153.65,341.356,150.291,344.715,150.291,348.857z"/>
			<path d="M194.637,268.578v-11.624c0-4.142-3.358-7.5-7.5-7.5c-4.142,0-7.5,3.358-7.5,7.5v11.624c0,4.142,3.358,7.5,7.5,7.5
				C191.279,276.079,194.637,272.72,194.637,268.578z"/>
			<path d="M297.993,208.78c-0.255,4.134,2.89,7.692,7.024,7.948c0.157,0.01,0.313,0.015,0.469,0.015
				c3.931,0,7.233-3.061,7.478-7.039c0.2-3.242,0.752-6.069,1.336-9.061c0.863-4.419,1.756-8.989,1.568-14.914
				c-0.131-4.14-3.581-7.405-7.734-7.258c-4.14,0.131-7.39,3.594-7.258,7.734c0.134,4.233-0.529,7.63-1.297,11.563
				C298.958,200.947,298.254,204.553,297.993,208.78z"/>
		</g>
	</g>
</g>
<g>
</g>
<g>
</g>
<g>
</g>
<g>
</g>
<g>
</g>
<g>
</g>
<g>
</g>
<g>
</g>
<g>
</g>
<g>
</g>
<g>
</g>
<g>
</g>
<g>
</g>
<g>
</g>
<g>
</g>
</svg>
