<svg id="Layer_1" height="512" viewBox="0 0 128 128" width="512" xmlns="http://www.w3.org/2000/svg" data-name="Layer 1"><path d="m105.81 93a1.746 1.746 0 0 0 -1.58-1h-11.5a34.9 34.9 0 0 0 -24.15 9.65v-26.91a23.431 23.431 0 0 0 18.8-22.91v-36.08a1.746 1.746 0 0 0 -1.75-1.75h-1.32a44.519 44.519 0 0 0 -5.03.3 28.461 28.461 0 0 0 -14.59-14.16 1.742 1.742 0 0 0 -1.38 0 28.479 28.479 0 0 0 -14.59 14.15 43.975 43.975 0 0 0 -5.03-.29h-1.32a1.746 1.746 0 0 0 -1.75 1.75v36.07a23.414 23.414 0 0 0 18.8 22.92v26.92a34.885 34.885 0 0 0 -24.16-9.66h-11.51a1.757 1.757 0 0 0 -1.58 1 1.733 1.733 0 0 0 .22 1.85 34.91 34.91 0 0 0 27.27 13.03h9.76v18.37a1.746 1.746 0 0 0 1.75 1.75h5.66a1.746 1.746 0 0 0 1.75-1.75v-18.37h9.74a34.9 34.9 0 0 0 27.27-13.03 1.733 1.733 0 0 0 .22-1.85zm-56.15 11.38a31.432 31.432 0 0 1 -21.95-8.88h7.55a31.347 31.347 0 0 1 21.94 8.88zm34.22-86.88v21.43a44.951 44.951 0 0 0 -16.16-17.94 41.63 41.63 0 0 1 16.16-3.49zm-19.88-13.83a24.952 24.952 0 0 1 11.66 11.19 43.416 43.416 0 0 0 -6.25 1.71c-.91.33-1.81.67-2.7 1.05-.41.18-2.42 1.39-2.73 1.24a45.168 45.168 0 0 0 -11.63-4.02 24.937 24.937 0 0 1 11.65-11.17zm-19.88 48.15v-34.32a41.741 41.741 0 0 1 36.04 21.87 40.235 40.235 0 0 1 2.61 5.94 24.935 24.935 0 0 1 1.11 6.81 19.881 19.881 0 0 1 -39.76-.3zm20.96 72.68h-2.16v-49.34c.35.02.71.03 1.07.03h.01q.54 0 1.08-.03zm13.24-20.12h-7.54a31.353 31.353 0 0 1 21.95-8.88h7.54a31.4 31.4 0 0 1 -21.95 8.88z"/></svg>